<svg viewBox="0 0 400 400" xmlns="http://www.w3.org/2000/svg" className="w-full h-full opacity-10">
  <g fill="white" stroke="white" strokeWidth="2" strokeLinejoin="round">
    <!-- Main box body -->
    <path d="M80 160 L80 320 L320 320 L320 160 L320 120 L200 120 L200 100 L180 100 L180 120 L80 120 Z" fillOpacity="0.1"/>
    
    <!-- Box sides for 3D effect -->
    <path d="M320 160 L340 140 L340 300 L320 320" fillOpacity="0.05"/>
    <path d="M80 320 L100 300 L340 300 L320 320" fillOpacity="0.05"/>
    
    <!-- Box lid/flaps -->
    <path d="M80 120 L60 100 L240 100 L260 120" fillOpacity="0.08"/>
    <path d="M260 120 L280 100 L360 100 L340 120 L320 120" fillOpacity="0.08"/>
    
    <!-- Handle on top -->
    <rect x="180" y="95" width="40" height="10" rx="5" fillOpacity="0.15"/>
    
    <!-- Box seams/lines -->
    <line x1="80" y1="160" x2="320" y2="160" strokeOpacity="0.3"/>
    <line x1="200" y1="120" x2="200" y2="160" strokeOpacity="0.3"/>
    <line x1="140" y1="120" x2="140" y2="320" strokeOpacity="0.2"/>
    <line x1="260" y1="120" x2="260" y2="320" strokeOpacity="0.2"/>
    
    <!-- Fragile symbol -->
    <g transform="translate(180, 220)" strokeOpacity="0.4" fillOpacity="0.1">
      <circle cx="20" cy="20" r="25" strokeWidth="3"/>
      <path d="M10 35 L30 35 M20 10 L20 30" strokeWidth="3"/>
    </g>
  </g>
</svg>